<svg width="12" height="220" viewBox="0 0 12 220" fill="none" xmlns="http://www.w3.org/2000/svg">
<path d="M6 208.667C3.05448 208.667 0.666667 211.054 0.666667 214C0.666667 216.946 3.05448 219.333 6 219.333C8.94552 219.333 11.3333 216.946 11.3333 214C11.3333 211.054 8.94552 208.667 6 208.667ZM5 0V1.98148H7V0L5 0ZM5 5.94444L5 9.90741H7L7 5.94444H5ZM5 13.8704V17.8333H7V13.8704H5ZM5 21.7963V25.7593H7V21.7963H5ZM5 29.7222V33.6852H7V29.7222H5ZM5 37.6481V41.6111H7L7 37.6481H5ZM5 45.5741V49.537H7L7 45.5741H5ZM5 53.5V57.463H7V53.5H5ZM5 61.4259V65.3889H7V61.4259H5ZM5 69.3518V73.3148H7V69.3518H5ZM5 77.2778L5 81.2407H7L7 77.2778H5ZM5 85.2037V89.1666H7V85.2037H5ZM5 93.1296L5 97.0926H7L7 93.1296H5ZM5 101.056V105.018H7V101.056H5ZM5 108.981V112.944H7V108.981H5ZM5 116.907V120.87H7V116.907H5ZM5 124.833V128.796H7L7 124.833H5ZM5 132.759V136.722H7L7 132.759H5ZM5 140.685V144.648H7V140.685H5ZM5 148.611V152.574H7V148.611H5ZM5 156.537V160.5H7V156.537H5ZM5 164.463L5 168.426H7L7 164.463H5ZM5 172.389V176.352H7V172.389H5ZM5 180.315L5 184.278H7L7 180.315H5ZM5 188.241V192.204H7V188.241H5ZM5 196.167V200.13H7V196.167H5ZM5 204.093V208.056H7V204.093H5ZM5 212.019V214H7L7 212.019H5Z" fill="#D50000"/>
</svg>
