<svg width="12" height="386" viewBox="0 0 12 386" fill="none" xmlns="http://www.w3.org/2000/svg">
<path d="M6 374.733C3.05448 374.733 0.666667 377.12 0.666667 380.066C0.666667 383.011 3.05448 385.399 6 385.399C8.94552 385.399 11.3333 383.011 11.3333 380.066C11.3333 377.12 8.94552 374.733 6 374.733ZM5 0.934082V2.95074L7 2.95074V0.934082L5 0.934082ZM5 6.98406L5 11.0174H7L7 6.98406H5ZM5 15.0507L5 19.084H7L7 15.0507H5ZM5 23.1173L5 27.1506H7L7 23.1173H5ZM5 31.184L5 35.2173H7L7 31.184H5ZM5 39.2506L5 43.2839H7L7 39.2506H5ZM5 47.3172L5 51.3506H7L7 47.3172H5ZM5 55.3839L5 59.4172H7L7 55.3839H5ZM5 63.4505L5 67.4838H7L7 63.4505H5ZM5 71.5171L5 75.5505H7L7 71.5171H5ZM5 79.5838L5 83.6171H7L7 79.5838H5ZM5 87.6504L5 91.6837H7L7 87.6504H5ZM5 95.717L5 99.7504H7L7 95.717H5ZM5 103.784L5 107.817H7L7 103.784H5ZM5 111.85L5 115.884H7L7 111.85H5ZM5 119.917L5 123.95H7L7 119.917H5ZM5 127.984L5 132.017H7L7 127.984H5ZM5 136.05L5 140.084H7L7 136.05H5ZM5 144.117L5 148.15H7L7 144.117H5ZM5 152.184L5 156.217H7L7 152.184H5ZM5 160.25L5 164.283H7L7 160.25H5ZM5 168.317L5 172.35H7L7 168.317H5ZM5 176.383L5 180.417H7L7 176.383H5ZM5 184.45L5 188.483H7L7 184.45H5ZM5 192.517L5 196.55H7L7 192.517H5ZM5 200.583L5 204.617H7L7 200.583H5ZM5 208.65L5 212.683H7L7 208.65H5ZM5 216.717L5 220.75H7L7 216.717H5ZM5 224.783L5 228.817H7L7 224.783H5ZM5 232.85L5 236.883H7L7 232.85H5ZM5 240.917L5 244.95H7L7 240.917H5ZM5 248.983L5 253.017H7L7 248.983H5ZM5 257.05L5 261.083H7L7 257.05H5ZM5 265.117L5 269.15H7L7 265.117H5ZM5 273.183L5 277.217H7L7 273.183H5ZM5 281.25L5 285.283H7L7 281.25H5ZM5 289.317L5 293.35H7L7 289.317H5ZM5 297.383L5 301.417H7L7 297.383H5ZM5 305.45L5 309.483H7L7 305.45H5ZM5 313.517L5 317.55H7L7 313.517H5ZM5 321.583L5 325.616H7L7 321.583H5ZM5 329.65L5 333.683H7L7 329.65H5ZM5 337.716L5 341.75H7L7 337.716H5ZM5 345.783L5 349.816H7L7 345.783H5ZM5 353.85L5 357.883H7L7 353.85H5ZM5 361.916L5 365.95H7L7 361.916H5ZM5 369.983L5 374.016H7L7 369.983H5ZM5 378.05V380.066H7V378.05H5Z" fill="#D50000"/>
</svg>
